<!DOCTYPE svg PUBLIC "-//W3C//DTD SVG 20010904//EN" "http://www.w3.org/TR/2001/REC-SVG-20010904/DTD/svg10.dtd">
<svg version="1.0" xmlns="http://www.w3.org/2000/svg" width="543px" height="433px" viewBox="0 0 5430 4330" preserveAspectRatio="xMidYMid meet">
<g id="layer101" fill="#000000" stroke="none">
<path d="M760 4174 c0 -27 16 -48 29 -40 14 9 61 -38 61 -61 0 -10 -9 -73 -19 -140 l-18 -123 33 0 32 0 7 78 c4 42 11 83 14 90 5 8 25 -21 56 -78 47 -86 51 -90 83 -90 l33 0 -32 58 c-71 124 -158 268 -176 290 -12 15 -33 25 -61 29 -36 5 -42 3 -42 -13z"/>
<path d="M4070 4174 c0 -27 16 -48 29 -40 14 9 61 -38 61 -61 0 -10 -9 -73 -19 -140 l-18 -123 33 0 32 0 7 78 c4 42 11 83 14 90 5 8 25 -21 56 -78 47 -86 51 -90 83 -90 l33 0 -32 58 c-71 124 -158 268 -176 290 -12 15 -33 25 -61 29 -36 5 -42 3 -42 -13z"/>
<path d="M3130 4148 c0 -6 10 -22 22 -35 12 -13 16 -23 9 -23 -8 0 -11 -12 -9 -32 3 -29 7 -33 36 -36 21 -2 32 1 32 10 0 30 -23 91 -41 109 -21 21 -49 25 -49 7z"/>
<path d="M123 4104 c-39 -9 -73 -53 -73 -95 0 -37 2 -39 30 -39 25 0 30 4 30 23 0 37 30 57 84 57 36 0 52 -5 71 -25 46 -45 25 -72 -74 -95 -73 -17 -105 -49 -98 -97 8 -45 30 -79 70 -104 26 -16 45 -19 101 -17 79 4 106 26 106 84 0 31 -3 34 -30 34 -23 0 -30 -5 -30 -19 0 -41 -61 -65 -115 -45 -21 8 -46 57 -36 72 4 7 41 21 82 32 43 12 81 29 92 41 38 46 9 137 -53 169 -38 20 -119 32 -157 24z"/>
<path d="M555 4103 c-29 -7 -45 -32 -45 -71 0 -65 36 -95 128 -108 56 -7 76 -22 66 -48 -13 -33 -104 -11 -104 25 0 5 -11 9 -25 9 -53 0 -13 -79 50 -100 45 -15 108 -4 131 21 18 20 18 24 -2 120 -16 80 -17 99 -6 99 8 0 12 9 10 23 -2 17 -11 23 -36 25 -22 2 -34 -2 -38 -12 -5 -13 -9 -13 -27 -2 -26 16 -74 25 -102 19z m109 -78 c14 -13 26 -32 26 -41 0 -14 -7 -16 -46 -10 -26 3 -53 11 -60 17 -15 12 -19 41 -7 52 15 15 62 6 87 -18z"/>
<path d="M1780 4097 c-39 -14 -60 -46 -60 -96 0 -131 111 -230 212 -188 49 21 65 63 50 134 -25 121 -108 183 -202 150z m116 -85 c28 -41 39 -103 24 -131 -15 -29 -70 -28 -98 2 -39 41 -53 108 -31 148 17 33 78 22 105 -19z"/>
<path d="M3480 4103 c-38 -7 -60 -32 -60 -70 0 -28 4 -33 23 -33 14 0 26 9 32 23 13 28 69 36 95 12 26 -24 15 -43 -34 -56 -65 -17 -86 -35 -86 -73 0 -43 31 -81 76 -96 68 -23 134 8 134 62 0 24 -4 28 -29 28 -21 0 -30 -6 -34 -21 -5 -17 -12 -20 -44 -17 -29 2 -38 7 -38 22 0 21 9 27 78 51 33 12 49 23 53 39 7 31 -19 91 -48 109 -27 17 -82 26 -118 20z"/>
<path d="M3865 4103 c-29 -7 -45 -32 -45 -71 0 -65 36 -95 128 -108 56 -7 76 -22 66 -48 -13 -33 -104 -11 -104 25 0 5 -11 9 -25 9 -53 0 -13 -79 50 -100 45 -15 108 -4 131 21 18 20 18 24 -2 120 -16 80 -17 99 -6 99 8 0 12 9 10 23 -2 17 -11 23 -36 25 -22 2 -34 -2 -38 -12 -5 -13 -9 -13 -27 -2 -26 16 -74 25 -102 19z m109 -78 c14 -13 26 -32 26 -41 0 -14 -7 -16 -46 -10 -26 3 -53 11 -60 17 -15 12 -19 41 -7 52 15 15 62 6 87 -18z"/>
<path d="M4550 4103 c-38 -7 -60 -32 -60 -70 0 -28 4 -33 23 -33 14 0 26 9 32 23 13 28 69 36 95 12 26 -24 15 -43 -34 -56 -65 -17 -86 -35 -86 -73 0 -43 31 -81 76 -96 68 -23 134 8 134 62 0 24 -4 28 -29 28 -21 0 -30 -6 -34 -21 -5 -17 -12 -20 -44 -17 -29 2 -38 7 -38 22 0 21 9 27 78 51 33 12 49 23 53 39 7 31 -19 91 -48 109 -27 17 -82 26 -118 20z"/>
<path d="M4785 4103 c-29 -7 -45 -32 -45 -71 0 -65 36 -95 128 -108 56 -7 76 -22 66 -48 -13 -33 -104 -11 -104 25 0 5 -11 9 -25 9 -53 0 -13 -79 50 -100 45 -15 108 -4 131 21 18 20 18 24 -2 120 -16 80 -17 99 -6 99 8 0 12 9 10 23 -2 17 -11 23 -36 25 -22 2 -34 -2 -38 -12 -5 -13 -9 -13 -27 -2 -26 16 -74 25 -102 19z m109 -78 c14 -13 26 -32 26 -41 0 -14 -7 -16 -46 -10 -26 3 -53 11 -60 17 -15 12 -19 41 -7 52 15 15 62 6 87 -18z"/>
<path d="M2638 4089 c-37 -14 -62 -70 -54 -121 19 -117 110 -188 202 -158 46 16 68 62 58 126 l-6 44 -99 0 c-102 0 -109 3 -89 41 14 26 69 25 104 -2 15 -12 37 -19 53 -17 l27 3 -33 37 c-44 51 -105 68 -163 47z m152 -180 c0 -6 -5 -19 -10 -30 -14 -25 -71 -26 -92 -1 -34 39 -32 42 36 42 40 0 66 -4 66 -11z"/>
<path d="M2914 4090 c-78 -32 -69 -182 15 -253 42 -35 93 -44 126 -23 l24 16 12 -60 c11 -57 13 -60 40 -60 25 0 29 3 24 23 -3 12 -18 87 -35 167 -17 80 -32 155 -35 168 -4 15 -13 22 -30 22 -14 0 -25 -5 -25 -11 0 -8 -4 -8 -12 -1 -19 15 -80 23 -104 12z m104 -72 c39 -42 55 -121 30 -146 -54 -54 -155 66 -119 144 14 32 60 32 89 2z"/>
<path d="M5218 4089 c-37 -14 -62 -70 -54 -121 19 -117 110 -188 202 -158 46 16 68 62 58 126 l-6 44 -99 0 c-102 0 -109 3 -89 41 14 26 69 25 104 -2 15 -12 37 -19 53 -17 l27 3 -33 37 c-44 51 -105 68 -163 47z m152 -180 c0 -6 -5 -19 -10 -30 -14 -25 -71 -26 -92 -1 -34 39 -32 42 36 42 40 0 66 -4 66 -11z"/>
<path d="M387 4068 c-4 -12 3 -63 13 -112 11 -50 20 -91 20 -93 0 -2 -7 -3 -15 -3 -9 0 -15 -9 -15 -25 0 -18 5 -25 19 -25 20 0 31 -18 31 -51 0 -15 7 -19 31 -19 30 0 31 1 25 35 -6 31 -4 35 14 35 11 0 20 4 20 9 0 23 -14 41 -31 41 -11 0 -21 9 -24 23 -3 12 -10 45 -15 72 -6 28 -13 58 -16 68 -4 12 0 17 16 17 16 0 21 5 18 23 -2 18 -10 23 -44 25 -36 3 -42 0 -47 -20z"/>
<path d="M1190 4071 c0 -10 11 -71 25 -135 14 -64 25 -118 25 -121 0 -3 14 -5 30 -5 17 0 30 1 30 3 0 1 -13 63 -28 137 -27 131 -29 135 -55 138 -21 3 -27 -1 -27 -17z"/>
<path d="M1300 4071 c0 -11 6 -48 14 -83 8 -35 20 -89 26 -120 11 -55 13 -58 41 -58 17 0 28 4 24 10 -3 5 11 2 31 -6 39 -16 86 -13 111 7 7 6 13 30 13 53 0 35 -6 65 -35 194 -4 16 -13 22 -34 22 l-28 0 20 -99 c11 -55 17 -107 14 -115 -10 -24 -60 -20 -85 7 -15 16 -28 53 -40 113 -17 84 -19 89 -45 92 -21 3 -27 -1 -27 -17z"/>
<path d="M1590 4073 c0 -10 9 -58 20 -107 24 -108 24 -106 5 -106 -25 0 -19 -48 7 -52 16 -2 24 -13 31 -38 10 -43 31 -60 74 -60 29 0 33 3 33 25 0 18 -5 25 -20 25 -10 0 -24 9 -30 19 -14 27 -13 31 10 31 15 0 20 7 20 25 0 20 -5 25 -24 25 -26 0 -30 14 -64 185 -7 34 -12 41 -35 43 -21 3 -27 -1 -27 -15z"/>
<path d="M2000 4078 c0 -7 12 -70 26 -140 l27 -128 30 0 c22 0 28 4 23 16 -4 11 1 10 20 -5 15 -12 35 -21 46 -21 16 0 19 6 16 33 -2 26 -8 33 -29 35 -44 5 -67 40 -87 132 -17 79 -20 85 -45 88 -17 2 -27 -1 -27 -10z"/>
<path d="M2170 4071 c0 -11 6 -48 14 -83 8 -35 20 -89 26 -120 l11 -58 47 -1 c26 0 65 -1 86 -1 25 -1 43 4 51 15 11 15 13 15 29 -1 21 -21 96 -23 119 -3 21 17 21 58 2 153 -25 124 -22 118 -55 118 -17 0 -30 -1 -30 -3 0 -2 9 -43 20 -93 27 -124 27 -134 -9 -134 -44 0 -66 36 -86 140 -17 88 -18 90 -46 90 -16 0 -29 -4 -29 -9 0 -5 9 -52 20 -106 11 -53 17 -101 14 -106 -10 -17 -50 -9 -72 14 -15 16 -28 53 -40 113 -17 84 -19 89 -45 92 -21 3 -27 -1 -27 -17z"/>
<path d="M3697 4068 c-4 -12 3 -63 13 -112 11 -50 20 -91 20 -93 0 -2 -7 -3 -15 -3 -9 0 -15 -9 -15 -25 0 -18 5 -25 19 -25 20 0 31 -18 31 -51 0 -15 7 -19 31 -19 30 0 31 1 25 35 -6 31 -4 35 14 35 11 0 20 4 20 9 0 23 -14 41 -31 41 -11 0 -21 9 -24 23 -3 12 -10 45 -15 72 -6 28 -13 58 -16 68 -4 12 0 17 16 17 16 0 21 5 18 23 -2 18 -10 23 -44 25 -36 3 -42 0 -47 -20z"/>
<path d="M5030 4073 c0 -10 9 -58 20 -107 24 -108 24 -106 5 -106 -25 0 -19 -48 7 -52 16 -2 24 -13 31 -38 10 -43 31 -60 74 -60 29 0 33 3 33 25 0 18 -5 25 -20 25 -10 0 -24 9 -30 19 -14 27 -13 31 10 31 15 0 20 7 20 25 0 20 -5 25 -24 25 -26 0 -30 14 -64 185 -7 34 -12 41 -35 43 -21 3 -27 -1 -27 -15z"/>
<path d="M1254 3748 c3 -13 6 -26 6 -30 0 -5 14 -8 31 -8 28 0 31 3 25 23 -3 12 -6 25 -6 30 0 4 -14 7 -31 7 -28 0 -31 -3 -25 -22z"/>
<path d="M1451 3527 c-14 -6 -33 -26 -43 -43 -22 -37 -220 -774 -221 -825 -1 -19 6 -47 16 -62 19 -30 83 -53 120 -43 57 14 66 31 121 251 30 116 56 203 59 195 4 -8 27 -98 52 -199 25 -101 50 -192 56 -202 13 -25 61 -49 96 -49 34 0 89 32 97 57 3 10 26 99 51 198 25 99 49 187 52 195 3 8 29 -79 59 -195 55 -220 64 -237 121 -251 37 -10 101 13 120 43 10 15 17 43 16 62 -1 34 -192 764 -215 824 -26 68 -142 76 -183 13 -9 -14 -40 -115 -69 -225 l-51 -200 -44 172 c-68 266 -68 265 -101 282 -35 18 -76 19 -109 2z m96 -51 c6 -6 39 -121 73 -256 34 -134 66 -248 72 -251 27 -17 39 13 89 219 28 120 58 233 66 253 25 65 97 72 121 12 15 -38 212 -778 212 -796 0 -51 -78 -79 -110 -39 -10 11 -41 114 -69 229 -76 303 -69 283 -91 283 -22 0 -16 18 -91 -285 -31 -128 -59 -217 -69 -229 -10 -10 -30 -18 -44 -18 -27 0 -66 27 -66 45 0 6 -28 117 -61 249 -52 201 -65 238 -80 238 -21 0 -15 18 -89 -280 -28 -113 -58 -215 -66 -228 -22 -33 -82 -28 -103 9 -13 24 -7 53 87 412 57 213 107 398 112 412 16 42 74 53 107 21z"/>
<path d="M2168 3524 c-35 -18 -48 -43 -48 -91 0 -49 302 -818 335 -852 31 -32 100 -39 140 -13 27 17 49 65 194 432 178 450 179 456 126 509 -20 21 -35 26 -74 26 -61 0 -77 -13 -118 -102 l-34 -73 -158 0 -158 0 -28 65 c-44 104 -105 138 -177 99z m115 -75 c9 -19 27 -56 40 -84 l22 -50 188 0 188 0 32 74 c38 88 71 118 109 101 14 -7 31 -23 37 -37 10 -22 -8 -73 -148 -426 -176 -445 -181 -455 -243 -425 -31 15 -41 36 -192 418 -171 432 -173 439 -117 466 33 17 63 4 84 -37z"/>
<path d="M2404 3176 c-3 -7 21 -78 53 -157 45 -111 62 -144 76 -144 14 0 31 32 74 142 31 78 53 149 50 157 -9 22 -245 24 -253 2z m185 -78 c-12 -29 -28 -72 -36 -96 -9 -24 -19 -40 -24 -35 -7 7 -69 167 -69 179 0 2 34 4 75 4 l75 0 -21 -52z"/>
<path d="M3143 3530 c-12 -5 -29 -20 -37 -32 -30 -45 -286 -798 -286 -840 0 -50 13 -74 50 -93 43 -22 84 -19 119 11 26 22 42 60 118 292 l88 266 82 -255 c45 -140 88 -265 95 -277 25 -48 94 -65 148 -37 37 19 50 43 50 90 0 31 -253 785 -281 837 -21 39 -95 58 -146 38z m91 -52 c19 -18 57 -115 160 -414 75 -215 136 -401 136 -412 0 -11 -12 -30 -26 -41 -66 -52 -84 -24 -182 279 -110 340 -104 325 -127 325 -17 0 -34 -43 -120 -300 -89 -267 -103 -302 -127 -315 -25 -13 -29 -13 -55 6 -15 12 -29 32 -31 45 -2 14 58 200 133 414 136 393 155 435 200 435 8 0 25 -10 39 -22z"/>
<path d="M3685 3521 c-11 -5 -29 -19 -40 -31 -19 -21 -20 -36 -20 -446 l0 -424 28 -27 27 -28 202 -3 c212 -3 245 2 273 42 21 28 19 106 -3 132 -30 38 -56 44 -186 44 l-126 0 0 75 0 75 125 0 c173 0 205 18 205 115 0 38 -5 52 -29 76 l-29 29 -136 0 -136 0 0 80 0 80 136 0 136 0 29 29 c24 24 29 38 29 76 0 105 -24 115 -272 114 -106 0 -202 -4 -213 -8z m419 -52 c33 -26 34 -62 1 -94 -23 -24 -29 -25 -165 -25 l-141 0 3 -117 3 -118 147 -5 c132 -4 149 -7 162 -25 22 -29 19 -63 -9 -90 -23 -24 -29 -25 -165 -25 l-140 0 0 -115 0 -115 140 0 c136 0 142 -1 165 -25 33 -32 32 -68 -1 -94 -25 -20 -40 -21 -209 -21 -165 0 -185 2 -206 19 l-24 19 0 407 0 407 24 19 c21 17 41 19 206 19 169 0 184 -1 209 -21z"/>
<path d="M2231 1311 c-8 -14 -8 -57 1 -148 19 -210 17 -271 -12 -323 -14 -24 -44 -59 -68 -77 -77 -58 -140 -39 -211 65 -23 34 -52 64 -68 70 -15 6 -109 14 -209 18 -206 7 -224 3 -224 -50 0 -55 16 -60 186 -66 l153 -5 36 -35 c20 -19 53 -62 72 -95 20 -33 42 -67 50 -76 11 -13 8 -21 -22 -56 -32 -38 -38 -41 -75 -36 l-40 6 0 -43 c0 -36 5 -46 37 -73 20 -18 76 -69 124 -114 79 -73 93 -82 146 -93 80 -17 215 -6 273 23 27 13 66 47 99 87 66 80 102 103 140 89 37 -15 59 -36 98 -97 27 -41 39 -53 56 -50 32 4 33 47 3 105 -32 60 -54 86 -97 112 -50 31 -97 27 -183 -16 -96 -47 -107 -43 -182 74 -71 110 -73 135 -17 196 55 60 72 95 79 165 7 65 -18 284 -44 389 -17 68 -17 68 -54 71 -28 2 -39 -1 -47 -17z m-162 -856 c54 -51 104 -136 94 -161 -3 -8 -14 -14 -24 -14 -40 0 -87 29 -164 103 l-80 75 39 41 c45 47 35 50 135 -44z"/>
</g>
<g id="layer102" fill="#d22323" stroke="none">
<path d="M772 4163 c2 -9 13 -17 27 -18 29 -2 61 -41 61 -75 0 -14 -7 -65 -15 -115 -20 -120 -19 -135 4 -135 17 0 20 10 26 68 4 37 10 85 14 107 l7 40 57 -107 c44 -81 63 -108 78 -108 19 0 19 1 3 33 -50 95 -177 298 -196 311 -31 22 -70 21 -66 -1z"/>
<path d="M4082 4163 c2 -9 13 -17 27 -18 29 -2 61 -41 61 -75 0 -14 -7 -65 -15 -115 -20 -120 -19 -135 4 -135 17 0 20 10 26 68 4 37 10 85 14 107 l7 40 57 -107 c44 -81 63 -108 78 -108 19 0 19 1 3 33 -50 95 -177 298 -196 311 -31 22 -70 21 -66 -1z"/>
<path d="M3140 4141 c0 -6 4 -11 10 -11 17 0 34 -42 20 -50 -19 -12 -7 -45 19 -48 21 -3 22 -1 16 30 -7 36 -34 79 -53 86 -7 2 -12 -1 -12 -7z"/>
<path d="M113 4086 c-37 -17 -53 -43 -53 -85 0 -24 4 -31 20 -31 15 0 20 7 20 25 0 84 168 89 195 5 12 -37 -11 -57 -86 -75 -108 -27 -129 -57 -90 -133 26 -50 66 -72 134 -72 70 0 107 26 107 76 0 27 -4 34 -20 34 -15 0 -20 -7 -20 -24 0 -75 -153 -72 -173 3 -8 33 15 51 87 72 38 10 77 26 87 35 39 35 11 127 -49 158 -44 23 -122 29 -159 12z"/>
<path d="M550 4087 c-19 -9 -26 -22 -28 -50 -5 -56 36 -93 112 -102 63 -8 89 -26 84 -59 -2 -17 -11 -22 -50 -24 -41 -3 -49 0 -64 22 -18 29 -44 35 -44 11 0 -25 47 -62 86 -70 43 -8 101 10 109 34 3 10 -3 59 -14 109 -16 82 -17 93 -3 101 21 12 6 31 -24 31 -17 0 -24 -6 -24 -19 0 -17 -3 -17 -47 5 -53 28 -59 28 -93 11z m121 -56 c17 -18 29 -40 29 -55 0 -29 3 -28 -92 -5 -39 10 -57 41 -44 74 10 27 74 19 107 -14z"/>
<path d="M1784 4090 c-104 -43 -43 -252 80 -275 43 -9 93 17 107 53 21 56 -16 164 -71 203 -31 22 -88 31 -116 19z m91 -36 c9 -4 24 -23 35 -43 48 -95 32 -161 -39 -161 -43 0 -62 16 -86 73 -19 47 -19 101 1 121 16 16 59 21 89 10z"/>
<path d="M3470 4089 c-29 -12 -40 -26 -40 -56 0 -31 24 -29 38 2 10 21 19 25 52 25 27 0 47 -7 60 -20 35 -35 24 -49 -60 -77 -50 -16 -55 -21 -58 -50 -4 -43 10 -67 54 -88 59 -28 134 -3 134 46 0 26 -36 25 -43 -1 -4 -16 -14 -20 -45 -20 -43 0 -66 18 -60 47 2 12 22 24 58 36 30 9 61 25 67 34 28 37 -15 106 -76 123 -43 12 -49 12 -81 -1z"/>
<path d="M3860 4087 c-19 -9 -26 -22 -28 -50 -5 -56 36 -93 112 -102 63 -8 89 -26 84 -59 -2 -17 -11 -22 -50 -24 -41 -3 -49 0 -64 22 -18 29 -44 35 -44 11 0 -25 47 -62 86 -70 43 -8 101 10 109 34 3 10 -3 59 -14 109 -16 82 -17 93 -3 101 21 12 6 31 -24 31 -17 0 -24 -6 -24 -19 0 -17 -3 -17 -47 5 -53 28 -59 28 -93 11z m121 -56 c17 -18 29 -40 29 -55 0 -29 3 -28 -92 -5 -39 10 -57 41 -44 74 10 27 74 19 107 -14z"/>
<path d="M4540 4089 c-29 -12 -40 -26 -40 -56 0 -31 24 -29 38 2 10 21 19 25 52 25 27 0 47 -7 60 -20 35 -35 24 -49 -60 -77 -50 -16 -55 -21 -58 -50 -4 -43 10 -67 54 -88 59 -28 134 -3 134 46 0 26 -36 25 -43 -1 -4 -16 -14 -20 -45 -20 -43 0 -66 18 -60 47 2 12 22 24 58 36 30 9 61 25 67 34 28 37 -15 106 -76 123 -43 12 -49 12 -81 -1z"/>
<path d="M4780 4087 c-19 -9 -26 -22 -28 -50 -5 -56 36 -93 112 -102 63 -8 89 -26 84 -59 -2 -17 -11 -22 -50 -24 -41 -3 -49 0 -64 22 -18 29 -44 35 -44 11 0 -25 47 -62 86 -70 43 -8 101 10 109 34 3 10 -3 59 -14 109 -16 82 -17 93 -3 101 21 12 6 31 -24 31 -17 0 -24 -6 -24 -19 0 -17 -3 -17 -47 5 -53 28 -59 28 -93 11z m121 -56 c17 -18 29 -40 29 -55 0 -29 3 -28 -92 -5 -39 10 -57 41 -44 74 10 27 74 19 107 -14z"/>
<path d="M406 4074 c-9 -8 -14 -25 -11 -37 2 -12 11 -54 20 -94 19 -89 19 -93 0 -93 -8 0 -15 -7 -15 -15 0 -8 9 -15 20 -15 14 0 21 -9 26 -35 4 -26 11 -35 26 -35 16 0 18 5 12 35 -6 31 -4 35 16 35 27 0 21 24 -7 28 -18 3 -24 16 -38 80 -9 42 -19 85 -22 95 -3 13 2 20 16 24 25 6 28 28 5 37 -24 9 -31 8 -48 -10z"/>
<path d="M2643 4080 c-12 -5 -29 -24 -39 -41 -38 -75 32 -208 119 -224 73 -14 123 41 110 121 l-6 34 -94 0 c-104 0 -119 9 -89 55 23 35 83 35 116 0 21 -23 50 -34 50 -19 0 20 -28 48 -63 65 -46 20 -70 22 -104 9z m153 -182 c-8 -38 -20 -48 -64 -48 -23 0 -40 8 -57 26 -42 46 -34 54 51 54 l77 0 -7 -32z"/>
<path d="M2899 4061 c-30 -30 -31 -35 -26 -88 13 -125 126 -202 200 -136 15 15 17 15 17 0 0 -9 5 -39 11 -67 8 -37 15 -50 28 -50 17 0 15 15 -19 178 -30 146 -40 178 -55 181 -14 2 -17 -2 -12 -18 5 -20 5 -20 -22 -1 -14 11 -40 23 -58 26 -27 5 -37 1 -64 -25z m129 -33 c29 -32 49 -110 36 -145 -8 -24 -16 -28 -50 -31 -36 -3 -45 1 -67 28 -30 35 -45 110 -28 146 15 33 78 34 109 2z"/>
<path d="M3716 4074 c-9 -8 -14 -25 -11 -37 2 -12 11 -54 20 -94 19 -89 19 -93 0 -93 -8 0 -15 -7 -15 -15 0 -8 9 -15 20 -15 14 0 21 -9 26 -35 4 -26 11 -35 26 -35 16 0 18 5 12 35 -6 31 -4 35 16 35 27 0 21 24 -7 28 -18 3 -24 16 -38 80 -9 42 -19 85 -22 95 -3 13 2 20 16 24 25 6 28 28 5 37 -24 9 -31 8 -48 -10z"/>
<path d="M5223 4080 c-12 -5 -29 -24 -39 -41 -38 -75 32 -208 119 -224 73 -14 123 41 110 121 l-6 34 -94 0 c-104 0 -119 9 -89 55 23 35 83 35 116 0 21 -23 50 -34 50 -19 0 20 -28 48 -63 65 -46 20 -70 22 -104 9z m153 -182 c-8 -38 -20 -48 -64 -48 -23 0 -40 8 -57 26 -42 46 -34 54 51 54 l77 0 -7 -32z"/>
<path d="M1200 4068 c0 -12 25 -136 45 -225 3 -14 13 -23 24 -23 18 0 17 6 -8 127 -21 101 -30 128 -43 131 -10 2 -18 -3 -18 -10z"/>
<path d="M1310 4071 c0 -8 34 -183 45 -228 6 -25 35 -32 35 -8 0 19 3 19 42 -5 40 -24 66 -25 96 -4 27 18 27 39 5 157 -16 80 -32 111 -50 94 -3 -3 3 -48 12 -100 10 -52 15 -102 12 -111 -4 -11 -18 -16 -42 -16 -54 0 -79 31 -99 126 -10 43 -19 85 -21 92 -5 14 -35 17 -35 3z"/>
<path d="M1600 4072 c0 -4 9 -48 20 -98 24 -108 24 -124 5 -124 -8 0 -15 -7 -15 -15 0 -8 9 -15 20 -15 13 0 22 -9 26 -27 11 -50 32 -73 64 -73 20 0 30 5 30 15 0 8 -9 15 -20 15 -13 0 -24 10 -30 26 -14 36 -13 44 10 44 11 0 20 7 20 15 0 9 -9 15 -24 15 -26 0 -28 6 -57 163 -10 54 -16 67 -31 67 -10 0 -18 -4 -18 -8z"/>
<path d="M2010 4071 c0 -6 6 -38 14 -73 8 -35 20 -89 26 -120 9 -45 16 -58 29 -58 14 0 17 6 14 28 -4 23 -3 24 7 9 10 -15 60 -47 75 -47 4 0 5 10 3 22 -2 16 -12 24 -32 28 -42 7 -64 44 -84 138 -13 65 -20 82 -34 82 -10 0 -18 -4 -18 -9z"/>
<path d="M2180 4072 c0 -9 34 -182 45 -229 3 -14 13 -23 24 -23 15 0 18 5 14 23 l-6 22 24 -22 c36 -33 79 -39 108 -16 23 19 25 19 60 1 43 -22 60 -23 89 -2 15 10 22 25 22 47 0 28 -6 58 -35 185 -3 13 -13 22 -24 22 -17 0 -17 -4 2 -99 11 -55 17 -107 14 -115 -8 -21 -65 -21 -88 0 -11 10 -27 56 -40 115 -19 84 -25 99 -42 99 -16 0 -18 -5 -13 -26 21 -84 37 -177 32 -190 -4 -11 -17 -14 -42 -12 -50 4 -69 33 -92 138 -13 62 -23 86 -35 88 -9 2 -17 -1 -17 -6z"/>
<path d="M5040 4068 c0 -7 9 -51 20 -98 24 -103 24 -120 5 -120 -8 0 -15 -7 -15 -15 0 -8 9 -15 20 -15 13 0 22 -9 26 -27 11 -50 32 -73 64 -73 20 0 30 5 30 15 0 8 -9 15 -20 15 -13 0 -24 10 -30 26 -14 36 -13 44 10 44 11 0 20 7 20 15 0 9 -9 15 -24 15 -26 0 -28 6 -57 163 -10 54 -16 67 -31 67 -10 0 -18 -6 -18 -12z"/>
<path d="M1264 3744 c3 -9 6 -18 6 -20 0 -2 9 -4 21 -4 15 0 19 4 15 16 -3 9 -6 18 -6 20 0 2 -9 4 -21 4 -15 0 -19 -4 -15 -16z"/>
<path d="M1280 2509 c-74 -14 -186 -76 -245 -134 -106 -106 -160 -270 -138 -420 38 -262 266 -443 530 -421 90 7 172 35 239 81 56 39 74 68 74 121 0 46 -14 70 -50 89 -45 23 -81 18 -140 -20 -96 -62 -177 -69 -277 -25 -249 110 -197 469 75 515 63 10 113 -2 186 -46 83 -50 134 -53 177 -10 24 24 29 38 29 75 0 39 -6 52 -36 86 -84 92 -267 140 -424 109z m191 -39 c112 -21 229 -99 229 -153 0 -28 -38 -67 -66 -67 -12 0 -35 11 -51 24 -62 52 -92 61 -198 61 -79 0 -107 -4 -135 -19 -71 -38 -109 -77 -142 -144 -30 -60 -33 -75 -32 -152 0 -67 5 -95 23 -132 48 -98 145 -166 252 -175 86 -8 140 4 212 47 67 41 84 42 120 12 44 -38 -7 -112 -110 -159 -346 -158 -725 176 -613 540 69 223 288 359 511 317z"/>
<path d="M1883 2510 c-13 -5 -32 -24 -43 -42 -20 -32 -20 -47 -18 -451 l3 -419 34 -30 33 -30 172 4 c164 3 173 4 228 31 105 52 152 135 152 272 0 108 -22 166 -89 235 l-45 45 75 125 c87 146 94 179 46 232 -26 29 -35 33 -80 33 -38 0 -56 -5 -71 -21 -12 -11 -61 -92 -109 -180 -66 -118 -94 -160 -110 -162 -21 -3 -21 0 -21 138 0 157 -9 189 -60 215 -32 17 -64 18 -97 5z m84 -54 l28 -24 5 -164 5 -163 48 -3 c54 -4 38 -23 167 207 42 74 87 143 101 154 25 18 28 18 58 3 55 -29 51 -50 -38 -203 -77 -132 -94 -173 -71 -173 22 0 89 -74 109 -121 48 -111 34 -219 -39 -301 -59 -67 -100 -81 -263 -86 -151 -5 -187 3 -206 44 -15 35 -16 773 0 808 10 21 40 43 61 45 4 1 20 -10 35 -23z"/>
<path d="M2004 1957 c-2 -7 -3 -62 -2 -123 l3 -109 99 -3 c77 -2 104 1 123 13 28 19 53 71 53 111 0 40 -30 93 -61 109 -37 20 -207 21 -215 2z m207 -56 c26 -31 25 -91 -1 -119 -18 -19 -32 -22 -95 -22 l-75 0 0 86 0 86 76 -4 c65 -3 79 -7 95 -27z"/>
<path d="M2605 2511 c-11 -5 -29 -19 -40 -31 -19 -21 -20 -36 -20 -456 l0 -434 28 -27 c23 -23 36 -28 77 -28 41 0 54 5 77 28 l28 27 0 435 0 435 -26 26 c-28 28 -89 40 -124 25z m68 -42 c14 -6 30 -22 36 -36 7 -16 11 -148 11 -409 0 -413 -2 -434 -51 -447 -29 -8 -65 10 -78 40 -15 34 -15 783 0 817 9 19 31 37 56 45 1 1 13 -4 26 -10z"/>
<path d="M2898 2504 c-57 -30 -58 -38 -58 -456 0 -356 2 -386 20 -425 29 -66 108 -104 179 -88 69 15 91 52 176 300 43 127 86 249 95 273 l17 44 93 -269 c82 -234 98 -273 130 -305 84 -85 228 -45 260 73 7 25 10 176 8 418 l-3 380 -29 30 c-54 56 -146 48 -175 -15 -7 -16 -11 -112 -12 -267 l-1 -242 -83 249 c-46 136 -91 258 -99 271 -34 51 -128 57 -170 10 -12 -14 -55 -128 -102 -272 l-82 -248 -1 244 -1 243 -34 34 c-38 38 -81 44 -128 18z m116 -69 c3 -9 6 -141 6 -293 0 -405 11 -405 145 0 54 161 105 300 114 309 29 30 57 32 85 7 19 -18 47 -88 122 -308 52 -157 102 -291 109 -299 7 -7 21 -11 29 -8 14 6 16 40 16 280 0 174 4 286 11 306 18 52 57 61 102 23 16 -14 17 -46 17 -408 l0 -392 -25 -31 c-36 -42 -83 -56 -128 -37 -20 8 -42 25 -50 38 -9 12 -59 149 -113 303 -53 154 -103 286 -110 294 -7 7 -19 11 -26 8 -8 -3 -60 -136 -117 -298 -57 -162 -110 -304 -117 -316 -8 -12 -32 -27 -53 -34 -34 -10 -44 -9 -72 7 -17 11 -41 32 -53 47 -20 28 -21 40 -24 404 -3 406 -2 412 51 432 26 10 71 -10 81 -34z"/>
<path d="M3975 2501 c-11 -5 -29 -19 -40 -31 -19 -21 -20 -36 -20 -446 l0 -424 28 -27 27 -28 202 -3 c212 -3 245 2 273 42 21 28 19 106 -3 132 -30 38 -56 44 -186 44 l-126 0 0 75 0 75 125 0 c173 0 205 18 205 115 0 38 -5 52 -29 76 l-29 29 -136 0 -136 0 0 80 0 80 136 0 136 0 29 29 c24 24 29 38 29 76 0 105 -24 115 -272 114 -106 0 -202 -4 -213 -8z m419 -52 c33 -26 34 -62 1 -94 -23 -24 -29 -25 -165 -25 l-141 0 3 -117 3 -118 147 -5 c132 -4 149 -7 162 -25 22 -29 19 -63 -9 -90 -23 -24 -29 -25 -165 -25 l-140 0 0 -115 0 -115 140 0 c136 0 142 -1 165 -25 33 -32 32 -68 -1 -94 -25 -20 -40 -21 -209 -21 -165 0 -185 2 -206 19 l-24 19 0 407 0 407 24 19 c21 17 41 19 206 19 169 0 184 -1 209 -21z"/>
<path d="M2231 1311 c-8 -14 -8 -57 1 -148 19 -210 17 -271 -12 -323 -14 -24 -44 -59 -68 -77 -77 -58 -140 -39 -211 65 -23 34 -52 64 -68 70 -15 6 -109 14 -209 18 -206 7 -224 3 -224 -50 0 -55 16 -60 186 -66 l153 -5 36 -35 c20 -19 55 -65 77 -102 51 -86 60 -93 83 -68 19 21 45 27 45 10 0 -6 -9 -18 -20 -27 -11 -10 -20 -21 -20 -26 0 -5 32 -39 72 -76 98 -91 144 -191 87 -191 -40 0 -87 30 -174 110 -49 46 -94 90 -98 97 -4 7 -21 13 -37 13 -28 0 -30 -3 -30 -35 0 -32 11 -46 113 -145 61 -60 128 -118 147 -127 28 -14 59 -18 151 -17 147 1 188 18 268 114 66 80 102 103 140 89 37 -15 59 -36 98 -97 27 -41 39 -53 56 -50 32 4 33 47 3 105 -32 60 -54 86 -97 112 -50 31 -97 27 -183 -16 -96 -47 -107 -43 -182 74 -71 110 -73 135 -17 196 55 60 72 95 79 165 7 65 -18 284 -44 389 -17 68 -17 68 -54 71 -28 2 -39 -1 -47 -17z"/>
<path d="M3370 1315 c-9 -11 -9 -52 2 -187 15 -189 11 -250 -23 -305 -25 -41 -102 -93 -136 -93 -45 0 -97 37 -133 94 -20 32 -48 62 -65 70 -20 10 -90 17 -216 21 -182 7 -187 7 -208 -14 -26 -26 -26 -42 -2 -72 18 -23 26 -24 174 -29 184 -6 174 -1 272 -150 42 -65 87 -119 140 -165 114 -103 158 -195 98 -203 -36 -5 -79 24 -184 124 -83 80 -104 95 -127 92 -21 -2 -28 -9 -30 -31 -3 -24 12 -44 104 -138 142 -144 164 -154 315 -153 149 1 189 18 269 117 30 38 68 75 83 84 42 22 91 -6 145 -84 28 -41 50 -63 63 -63 66 0 1 156 -90 217 -48 33 -96 29 -182 -12 -41 -19 -79 -35 -86 -35 -6 0 -23 10 -38 23 -35 31 -125 177 -125 203 0 12 20 46 43 76 55 67 73 101 81 159 12 83 -36 421 -65 456 -15 17 -64 17 -79 -2z"/>
<path d="M2433 215 c-36 -16 -63 -60 -63 -105 0 -67 43 -110 110 -110 67 0 110 43 110 110 0 83 -83 138 -157 105z"/>
<path d="M3574 216 c-45 -20 -64 -52 -64 -109 0 -40 5 -53 29 -78 25 -24 38 -29 78 -29 41 0 54 5 77 28 85 89 -9 237 -120 188z"/>
</g>


</svg>