<?xml version="1.0" encoding="utf-8"?>
<!-- Generator: Adobe Illustrator 13.0.0, SVG Export Plug-In . SVG Version: 6.00 Build 14948)  -->
<!DOCTYPE svg PUBLIC "-//W3C//DTD SVG 1.0//EN" "http://www.w3.org/TR/2001/REC-SVG-20010904/DTD/svg10.dtd">
<svg version="1.0" id="Layer_1" xmlns="http://www.w3.org/2000/svg" xmlns:xlink="http://www.w3.org/1999/xlink" x="0px" y="0px"
	 width="543px" height="433px" viewBox="0 0 543 433" enable-background="new 0 0 543 433" xml:space="preserve">
<g>
	<line fill="none" stroke="#010000" stroke-width="5" x1="166.875" y1="17.25" x2="187.125" y2="36.75"/>
	<path fill="none" stroke="#010000" stroke-width="5" d="M148,281c2.573-3.188,3.034-7.133,4.076-11
		c2.103-7.811,3.836-15.72,6.069-23.5c1.091-3.798,2.033-10.388,5.875-12.41c6.26-3.296,11.602,1.854,13.383,7.41
		c2.729,8.52,4.617,17.328,6.783,26c1.131,4.521,1.844,9.817,4.814,13.5c3.063-3.798,3.773-9.343,4.936-14
		c2.33-9.317,3.91-19.646,7.682-28.5c3.068-7.207,15.512-6.682,16.232,2c0.582,7.034-3.447,16.246-5.274,23
		c-4.101,15.16-7.882,30.403-12.22,45.5c-1.862,6.479-3.316,19.102-12.355,17.906c-6.253-0.825-7.484-7.367-8.93-12.406
		c-2.276-7.94-4.121-15.986-6.134-24c-1.021-4.066-1.668-8.759-4.436-12c-2.768,3.241-3.415,7.934-4.436,12
		c-1.975,7.862-3.874,15.735-6.204,23.5c-1.346,4.488-2.176,11.104-7.361,12.605c-11.725,3.4-13.536-15.579-15.575-23.105
		c-4.011-14.812-8.121-29.613-11.86-44.5c-1.336-5.313-4.886-13.044-4.282-18.5c0.71-6.414,10.144-9.667,14.548-4.933
		c5.431,5.838,6.477,18.412,8.356,25.933c1.884,7.535,5.228,15.423,6.314,23 M342.5,233.242c6.218-1.328,11.531,4.171,10.241,10.258
		c-1.787,8.432-5.508,16.893-8.396,25c-4.624,12.992-9.003,26.078-13.818,39c-2.313,6.197-4.359,18.026-12.025,19.335
		c-8.703,1.487-11.081-10.768-13.5-16.835c-7.099-17.799-13.301-36.201-18.985-54.5c-1.695-5.455-6.578-15.033-1.85-19.893
		c4.23-4.354,11.271-2.027,13.673,2.893c6.048,12.399,9.313,26.447,13.662,39.5c1.166,3.497,2.188,7.094,3.604,10.498
		c0.434,1.044,1.238,3.244,2.776,2.772c2.688-0.826,4.444-10.749,5.284-13.271c3.724-11.172,7.228-22.404,11.179-33.5
		C335.809,240.393,337.659,234.276,342.5,233.242 M247.502,233.871c9.385-3.635,12.9,6.406,15.598,13.129
		c7.53,18.771,14.976,37.579,22.112,56.5c2.38,6.313,9.481,18.55,0.288,22.502c-12.665,5.447-10.809-12.46-17.607-16.485
		c-1.908-1.132-5.254-0.517-7.393-0.517H242c-2.184,0-6.43-0.81-8.15,0.805c-3.623,3.392-3.945,10.29-7.455,14.176
		c-3.154,3.489-8.928,4.289-12.197,0.47c-4.901-5.725,0.88-15.636,3.091-21.448c6.616-17.395,13.202-34.903,20.571-52
		C239.852,246.38,242.441,235.831,247.502,233.871 M369,233.786c6.551-1.847,14.813,0.132,21.5,0.212
		c5.189,0.063,11.996-1.207,16.98,0.288c5.055,1.519,7.001,8.555,4.168,12.706C407.331,253.319,395.588,251,389,251
		c-2.371,0-6.874-0.854-8.571,1.217c-1.766,2.156-0.929,6.688-0.929,9.283c0,2.408-0.331,5.096,0.074,7.473
		C380.113,272.13,385.647,271,388,271c6.894,0,27.798-2.383,24.831,10c-2.375,9.911-16.023,7.5-23.831,7.5
		c-2.229,0-7.558-0.979-8.986,1.159c-1.237,1.858-0.514,5.699-0.514,7.841c0,2.544-1.119,8.641,0.514,10.698
		c1.271,1.602,5.67,0.802,7.486,0.802c6.358,0,13.902-1.426,20,0.741c7.165,2.548,7.106,12.38,0.5,15.6
		c-4.385,2.14-12.19,0.659-17,0.659h-16.5c-2.686,0-5.685,0.393-7.998-1.257c-5.2-3.701-4.002-10.178-4.002-15.743v-39.5
		c0-9.052-2.178-21.287,0.217-30C363.427,236.918,366.488,234.495,369,233.786 M251.031,268.673
		c2.052-0.604,3.123,2.964,3.621,4.327l5.188,14c0.603,1.655,1.816,4.221-0.415,5.198c-3.301,1.45-9.841,0.463-13.426,0.282
		c-1.346-0.068-3.182-0.229-3.843-1.62c-1.511-3.175,2.183-9.481,3.418-12.36C246.617,276.073,248.195,269.51,251.031,268.673"/>
	<path fill="none" stroke="#0055A4" stroke-width="10" d="M169.5,24.356c2.05-2.575,4.672-4.673,7-7
		c7.23-7.229,18.809-20.413,30.5-14.278c2.883,1.513,4.491,4.359,6.5,6.778c-2.029,3.036-2.364,6.748-3.985,10
		c-2.078,4.166-5.043,7.838-7.111,12c-1.176,2.369-1.475,5.769-3.255,7.752c-1.745,1.946-5.639,5.345-8.149,6.031
		c-3.129,0.854-6.27-0.681-8.915,1.791c-5.19,4.846-8.041,13.034-15.085,15.646c-9.289,3.44-20.376,0.493-30,2.279 M262.5,5.856
		c-1.973,3.224-3.66,6.624-6.15,9.498c-8.411,9.71-15.712,3.944-24.85-0.507c-5.365-2.615-12.011-4.976-18-4.991 M199.5,40.356
		c2.845,2.907,4.486,6.281,6.88,9.5c4.299,5.78,8.739,10.042,9.958,17.5c1.152,7.049-0.548,14.974-1.254,22
		c-0.518,5.173-0.547,11.172-2.584,16"/>
	<path fill="none" stroke="#140F06" stroke-width="10" d="M282,24.856c7.578-7.577,17.802-20.951,29-22.564
		c5.658-0.814,13.525,0.112,15.126,7.064c1.575,6.84-6.27,15.641-9.336,21c-1.549,2.707-2.11,7.645-4.441,9.647
		c-4.171,3.585-11.233,3.386-15.805,6.842c-5.364,4.059-7.47,11.337-13.044,15.184c-2.475,1.709-5.634,1.617-8.5,1.971
		c-7.908,0.973-16.029,0.856-24,0.856 M376.5,5.356c-2.233,3.785-4.336,7.637-7.232,10.979c-7.668,8.856-15.802,2.792-23.768-1.26
		c-5.612-2.854-12.181-5.217-18.5-5.221 M313,40.356c5.767,5.894,14.392,15.961,16.607,24c1.372,4.979,0.461,11.428-0.022,16.5
		c-0.788,8.271-1.396,16.313-3.085,24.5"/>
	<path fill="#0055A4" stroke="#0055A4" stroke-width="2" d="M120.5,123.219c11.478-1.792,24.085,1.646,33.5,8.302
		c5.374,3.8,9.109,11.6,1.998,15.976c-8.021,4.938-17.504-6.354-25.998-6.953c-24.317-1.703-41.83,25.094-27.74,45.956
		c7.588,11.237,22.175,15.323,34.74,10.826c5.857-2.096,12.433-9.895,18.997-5.474c11.079,7.459-2.502,17.765-9.497,20.994
		c-5.178,2.388-10.395,3.194-16,3.736c-5.909,0.572-11.775,0.577-17.5-1.257c-36.452-11.677-45.275-63.031-12.5-84.479
		C106.501,126.921,113.404,124.328,120.5,123.219"/>
	<path fill="#0055A4" stroke="#0055A4" stroke-width="2" d="M252.5,123.299c10.6-0.479,9,11.641,9,18.701
		c0,18.685,1.831,38.456-0.357,57c-0.871,7.377,1.795,17.787-9.143,17.768c-9.31-0.021-7-13.782-7-19.768
		c0-18.837-0.5-37.641-0.5-56.5C244.5,133.93,243.188,123.721,252.5,123.299"/>
	<path fill="#0055A4" stroke="#0055A4" stroke-width="2" d="M293.5,160.5c-1.141,3.859-0.5,8.492-0.5,12.5
		c0,6.025-0.5,11.976-0.5,18c0,6.659,1.282,15.923-2.07,21.998c-3.171,5.746-12.392,4.875-14.961-1
		c-2.627-6.009-0.969-15.558-0.969-21.998v-39c0-6.065-1.145-13.661,0.781-19.5c2.236-6.775,10.408-9.184,16.719-7.732
		c7.522,1.727,9.107,10.396,11.328,16.732c3.214,9.169,6.535,18.307,9.671,27.5c2.026,5.943,3.839,12.854,7.501,18
		c3.194-3.675,4.447-8.943,5.999-13.5c2.672-7.844,5.311-15.734,8.213-23.5c2.647-7.079,4.693-17.624,10.313-22.943
		c7.285-6.904,18.879-1.699,21.457,6.943c2.009,6.738,1.021,14.546,1.021,21.5v39c0,7.057,1.519,27.193-11.5,23.173
		c-6.802-2.1-5.5-10.188-5.5-15.673v-29c0-4.704,0.853-10.257-1.5-14.5c-3.67,4.092-4.9,9.896-6.672,15
		c-3.129,9.016-6.345,17.997-9.5,27c-1.581,4.516-3.176,12.106-6.882,15.306c-6.459,5.568-12.063-0.521-14.441-6.306
		c-4.811-11.694-8.34-24.006-12.338-36c-1.896-5.688-5.101-11.271-6.167-17"/>
	<path fill="#0055A4" stroke="#0055A4" stroke-width="2" d="M388,123.786c6.551-1.847,14.813,0.133,21.5,0.212
		c5.189,0.063,11.996-1.207,16.981,0.288c5.054,1.52,7,8.555,4.167,12.706C426.331,143.318,414.588,141,408,141
		c-2.371,0-6.873-0.854-8.571,1.217c-1.766,2.155-0.929,6.688-0.929,9.283c0,2.408-0.331,5.096,0.074,7.474
		C399.113,162.13,404.647,161,407,161c6.894,0,27.798-2.383,24.831,10c-2.375,9.911-16.023,7.5-23.831,7.5
		c-2.229,0-7.558-0.979-8.986,1.159c-1.237,1.858-0.514,5.698-0.514,7.841c0,2.544-1.119,8.641,0.514,10.699
		c1.271,1.601,5.669,0.801,7.486,0.801c6.358,0,13.902-1.426,20,0.742c7.165,2.547,7.106,12.379,0.5,15.599
		c-4.385,2.14-12.19,0.659-17,0.659h-16.5c-2.686,0-5.685,0.393-7.998-1.257c-5.2-3.701-4.002-10.178-4.002-15.743v-39.5
		c0-9.052-2.178-21.287,0.217-29.999C382.427,126.919,385.488,124.495,388,123.786"/>
	<path fill="#0055A4" stroke="#0055A4" stroke-width="2" d="M220.4,186.5c-1.079-1.8-3.722-4.775-3.401-7
		c0.404-2.806,4.635-5.521,6.455-7.5c3.351-3.646,5.924-8.52,6.459-13.5c1.466-13.642-2.615-28.729-17.413-33.104
		c-5.954-1.765-12.862-0.896-19-0.896c-4.655,0-11.631-1.302-16,0.371c-7.066,2.705-5,13.258-5,19.129c0,17.359,0.5,34.663,0.5,52
		c0,5.207-1.919,15.425,2.607,19.18c4.753,3.937,12.22,0.424,13.656-5.179c1.128-4.399-0.107-9.483,0.322-14
		c0.257-2.691,0.415-5.287,0.415-8c0-1.921-0.604-5.166,0.514-6.841c1.657-2.481,6.016-0.958,7.44,0.896
		c6.205,8.083,10.215,18.212,15.446,26.943c2.918,4.873,6.268,9.454,12.6,7.194C238.762,211.638,224.294,192.989,220.4,186.5z
		 M208.492,160.775c-3.873,2.044-9.273,1.229-13.492,1.227c-1.575-0.001-3.967,0.369-4.986-1.157
		c-1.938-2.904-0.797-11.934-0.371-15.343c0.191-1.525,0.352-3.418,1.931-4.131c4.116-1.855,15.675-0.392,18.833,2.726
		C214.817,148.446,214.352,157.684,208.492,160.775z"/>
	<path fill="none" stroke="#0055A4" stroke-width="2" d="M191.574,141.371c-1.579,0.713-1.74,2.605-1.931,4.131
		c-0.426,3.409-1.567,12.438,0.371,15.343c1.019,1.526,3.411,1.156,4.986,1.157c4.219,0.002,9.619,0.817,13.492-1.227
		c5.86-3.091,6.325-12.329,1.915-16.679C207.249,140.979,195.69,139.515,191.574,141.371z"/>
	<path fill="none" stroke="#0055A4" stroke-width="2" d="M210.407,144.096c-3.158-3.117-14.717-4.581-18.833-2.726
		c-1.579,0.713-1.74,2.605-1.931,4.131c-0.426,3.409-1.567,12.438,0.371,15.343c1.019,1.526,3.411,1.156,4.986,1.157
		c4.219,0.002,9.619,0.817,13.492-1.227C214.352,157.684,214.817,148.446,210.407,144.096z"/>
	<line fill="none" stroke="#0055A4" stroke-width="2" x1="349.5" y1="156" x2="349.5" y2="157"/>
	<line fill="none" stroke="#0055A4" stroke-width="2" x1="320.5" y1="186" x2="320.5" y2="187"/>
	<path fill="none" stroke="#0055A4" stroke-width="5" d="M483.219,369v3 M503.719,374.5l-0.5,4.5 M136.719,355.5l-1,1
		 M171.719,365.5l2,1c2.874-4.127,1.213-10,7.5-11 M320.719,355.5c-3.361,10.52-5.637,22.046-7,33 M515.719,365.5l2,1
		c2.875-4.127,1.215-10,7.5-11 M15.719,381.5c0.992,11.275,20.048,10.729,23.098,1c3.942-12.574-18.626-7.313-18.399-17
		c0.252-10.706,19.626-14.124,21.301-3 M54.719,359c-1.367,7.364-3.163,14.563-4.598,22c-0.604,3.127-1.763,6.854,2.098,8
		 M385.719,359c-1.367,7.364-3.164,14.563-4.599,22c-0.604,3.127-1.764,6.854,2.099,8 M196.219,365.365
		c5.947,0.025,7.35,5.22,6.954,10.135c-0.553,6.849-5.414,14.46-12.954,14.46c-5.555-0.001-8.09-5.539-7.057-10.46
		C184.61,372.597,187.983,365.33,196.219,365.365 M224.219,365l-9.073,6.15L210.219,388 M313.719,387.5
		c-4.506-3.312-11.287,5.534-15.361-1.521c-4.086-7.072,1.526-20.467,10.361-20.665c3.248-0.073,5.652,2.283,8,4.187 M50.719,365.5
		l2,1 M54.719,365.5h3.5 M65.719,370c1.361-1.354,2.703-2.958,4.5-3.743c1.383-0.604,3.011-0.721,4.5-0.749
		c9.715-0.187,5.829,10.974,4.381,16.992c-0.665,2.77-1.584,6.383,2.119,7 M110.719,365.5c-3.799,5.639-6.549,11.957-10.452,17.498
		c-1.185,1.686-3.269,2.588-4.333,4.25c-2.995,4.677-2.353,10.028-9.215,11.252 M145.219,366.5v2.5
		c4.03-1.018,8.527-4.971,12.971-3.129c2.462,1.021,2.511,3.881,2.239,6.129c-0.646,5.347-1.059,11.001-3.21,16 M175.719,365.5h3.5
		 M227.219,388c1.901-4.967,1.694-14.937,5.282-18.746c2.049-2.175,8.276-4.458,11.21-3.443c1.493,0.516,2.4,2.212,4.053,2.271
		c3.738,0.145,6.938-3.477,10.934-2.36c2.705,0.754,2.763,3.475,2.599,5.778c-0.382,5.43-1.479,10.676-2.577,16 M270.219,376.5
		c1.096-4.18,3.168-8.563,7.5-10.219c5.973-2.281,12.727,1.107,11.387,8.21c-1.226,6.487-15.559-0.615-18.957,3.668
		c-3.171,3.994,0.741,9.965,5.07,10.487c5.066,0.607,8.254-2.306,12-5.146 M352.719,386c3.456,6.315,16.717,3.896,16.339-3.992
		c-0.257-5.369-10.482-4.469-12.822-8.601c-1.771-3.123,1.213-6.251,3.983-7.173c4.394-1.461,7.735-0.323,11,2.766 M381.719,365.5
		l2,1 M385.719,365.5h3.5 M396.719,370c1.362-1.354,2.703-2.958,4.5-3.743c1.383-0.604,3.011-0.721,4.5-0.749
		c9.715-0.187,5.829,10.974,4.381,16.992c-0.665,2.77-1.584,6.383,2.119,7 M441.719,365.5c-3.799,5.639-6.55,11.957-10.452,17.498
		c-1.185,1.686-3.269,2.588-4.333,4.25c-2.993,4.677-2.353,10.028-9.215,11.252 M459.719,386c3.456,6.315,16.717,3.896,16.339-3.992
		c-0.257-5.369-10.482-4.469-12.822-8.601c-1.771-3.123,1.213-6.251,3.983-7.173c4.394-1.461,7.735-0.323,11,2.766 M488.719,370
		c1.362-1.354,2.704-2.958,4.5-3.743c1.383-0.604,3.011-0.721,4.5-0.749c9.715-0.187,5.829,10.974,4.381,16.992
		c-0.665,2.77-1.585,6.383,2.119,7 M519.719,365.5h3.5 M528.219,376.5c1.095-4.18,3.17-8.563,7.5-10.219
		c5.97-2.281,12.727,1.107,11.386,8.21c-1.226,6.487-15.556-0.614-18.954,3.668c-3.171,3.994,0.738,9.965,5.068,10.487
		c5.065,0.607,8.255-2.306,12-5.146 M92.719,366l2.5,20 M134.219,366l-5,22 M215.719,366l-0.5,3.5 M232.219,366v2 M423.719,366
		l2.5,20 M173.719,366.5c-0.89,7.043-1.602,14.952-4.5,21.5 M517.719,366.5c-0.89,7.043-1.6,14.951-4.5,21.5 M246.719,368.5l-4,20
		 M144.719,369.5l-4.5,18.5 M77.219,386c-3.432,1.626-7.521,4.156-11.498,3.495c-4.571-0.761-4.211-7.28-1.43-9.798
		c3.812-3.451,10.218-3.063,14.928-4.197 M408.219,386c-3.431,1.626-7.521,4.156-11.498,3.495c-4.569-0.761-4.211-7.28-1.43-9.798
		c3.812-3.451,10.218-3.063,14.928-4.197 M500.219,386c-3.431,1.626-7.521,4.156-11.498,3.495c-4.569-0.761-4.212-7.28-1.43-9.798
		c3.812-3.451,10.218-3.063,14.928-4.197 M311.719,385l2-1 M326.719,387.5c-0.919,3.704-0.72,5.939-4,8.5"/>
</g>
</svg>
