<?xml version="1.0" encoding="utf-8"?>
<!-- Generator: Adobe Illustrator 13.0.0, SVG Export Plug-In . SVG Version: 6.00 Build 14948)  -->
<!DOCTYPE svg PUBLIC "-//W3C//DTD SVG 1.0//EN" "http://www.w3.org/TR/2001/REC-SVG-20010904/DTD/svg10.dtd">
<svg version="1.0" id="Layer_1" xmlns="http://www.w3.org/2000/svg" xmlns:xlink="http://www.w3.org/1999/xlink" x="0px" y="0px"
	 width="543px" height="433px" viewBox="0 0 543 433" enable-background="new 0 0 543 433" xml:space="preserve">
<g id="XMLID_1_">
	<g>
		<path fill="#FFFFFF" d="M407,161c6.89,0,27.8-2.38,24.83,10c-2.37,9.91-16.021,7.5-23.83,7.5c-2.23,0-7.56-0.98-8.99,1.16
			c-1.229,1.86-0.51,5.7-0.51,7.84c0,2.54-1.12,8.64,0.51,10.7c1.28,1.6,5.67,0.8,7.49,0.8c6.36,0,13.9-1.43,20,0.74
			c7.17,2.55,7.11,12.38,0.5,15.6c-4.38,2.141-12.19,0.66-17,0.66h-16.5c-2.69,0-5.68,0.39-8-1.26c-5.2-3.7-4-10.17-4-15.74v-39.5
			c0-9.05-2.18-21.29,0.22-30c0.71-2.58,3.771-5,6.28-5.71c6.55-1.85,14.81,0.13,21.5,0.21c5.19,0.06,12-1.21,16.98,0.29
			c5.06,1.52,7,8.55,4.17,12.7C426.33,143.32,414.59,141,408,141c-2.37,0-6.87-0.85-8.57,1.22c-1.77,2.15-0.93,6.68-0.93,9.28
			c0,2.41-0.33,5.1,0.07,7.47C399.11,162.13,404.65,161,407,161z"/>
		<path fill="#FFFFFF" d="M349,157.5c-3.67,4.09-4.9,9.9-6.67,15c-3.13,9.02-6.34,18-9.5,27c-1.58,4.52-3.18,12.11-6.88,15.31
			c-6.46,5.56-12.07-0.53-14.44-6.31c-4.81-11.69-8.34-24.01-12.34-36c-1.9-5.69-5.1-11.27-6.17-17l0.5,5
			c-1.14,3.86-0.5,8.49-0.5,12.5c0,6.03-0.5,11.98-0.5,18c0,6.66,1.28,15.92-2.07,22c-3.17,5.74-12.39,4.87-14.96-1
			c-2.63-6.01-0.97-15.56-0.97-22v-39c0-6.07-1.14-13.66,0.78-19.5c2.239-6.78,10.41-9.18,16.72-7.73
			c7.52,1.72,9.11,10.39,11.33,16.73c3.21,9.17,6.53,18.31,9.67,27.5c2.03,5.94,3.84,12.85,7.5,18c3.19-3.67,4.45-8.94,6-13.5
			c2.67-7.84,5.31-15.73,8.21-23.5c2.65-7.08,4.7-17.62,10.31-22.94c7.29-6.91,18.881-1.7,21.461,6.94
			c2.01,6.74,1.02,14.55,1.02,21.5v39c0,7.06,1.52,27.19-11.5,23.17c-6.8-2.1-5.5-10.18-5.5-15.67v-29
			C350.5,167.3,351.35,161.74,349,157.5z"/>
		<path fill="#FFFFFF" d="M261.5,142c0,18.68,1.83,38.46-0.36,57c-0.87,7.38,1.8,17.79-9.14,17.77c-9.31-0.02-7-13.78-7-19.77
			c0-18.84-0.5-37.64-0.5-56.5c0-6.57-1.31-16.78,8-17.2C263.1,122.82,261.5,134.94,261.5,142z"/>
		<path fill="#FFFFFF" d="M195,162c4.22,0,9.62,0.82,13.49-1.22c5.86-3.1,6.33-12.33,1.92-16.68c-3.16-3.12-14.72-4.58-18.84-2.73
			c-1.57,0.71-1.74,2.61-1.93,4.13c-0.42,3.41-1.56,12.44,0.37,15.34C191.03,162.37,193.42,162,195,162z M212.5,125.4
			c14.8,4.37,18.88,19.46,17.41,33.1c-0.53,4.98-3.1,9.85-6.46,13.5c-1.82,1.98-6.05,4.69-6.45,7.5c-0.32,2.22,2.32,5.2,3.4,7
			c3.89,6.49,18.36,25.14,5.6,29.69c-6.33,2.26-9.68-2.32-12.6-7.19c-5.23-8.73-9.24-18.86-15.45-26.94
			c-1.42-1.86-5.78-3.38-7.44-0.9c-1.11,1.67-0.51,4.92-0.51,6.84c0,2.71-0.16,5.31-0.42,8c-0.42,4.52,0.81,9.6-0.32,14
			c-1.43,5.6-8.9,9.12-13.65,5.18c-4.53-3.76-2.61-13.97-2.61-19.18c0-17.34-0.5-34.64-0.5-52c0-5.87-2.07-16.42,5-19.13
			c4.37-1.67,11.35-0.37,16-0.37C199.64,124.5,206.55,123.63,212.5,125.4z"/>
		<path fill="#FFFFFF" d="M156,191.85c11.08,7.46-2.5,17.77-9.5,21c-5.18,2.38-10.4,3.19-16,3.73c-5.91,0.58-11.77,0.58-17.5-1.25
			c-36.45-11.68-45.27-63.04-12.5-84.48c6-3.93,12.9-6.52,20-7.63c11.48-1.79,24.08,1.65,33.5,8.3c5.37,3.8,9.11,11.6,2,15.98
			c-8.02,4.94-17.51-6.36-26-6.96c-24.32-1.7-41.83,25.1-27.74,45.96c7.59,11.24,22.18,15.32,34.74,10.83
			C142.86,195.23,149.43,187.43,156,191.85z"/>
	</g>
	<g>
		<polyline fill="none" stroke="#FFFFFF" stroke-width="5" points="166.88,17.25 171.72,21.91 187.12,36.75 		"/>
		<path fill="none" stroke="#FFFFFF" stroke-width="5" d="M148,281c2.57-3.19,3.03-7.13,4.08-11c2.1-7.81,3.83-15.72,6.07-23.5
			c1.09-3.8,2.03-10.39,5.87-12.41c6.26-3.3,11.6,1.851,13.38,7.41c2.73,8.52,4.62,17.33,6.79,26c1.13,4.52,1.84,9.82,4.81,13.5
			c3.06-3.8,3.77-9.34,4.94-14c2.33-9.32,3.91-19.65,7.68-28.5c3.07-7.21,15.51-6.68,16.23,2c0.58,7.03-3.45,16.25-5.27,23
			c-4.1,15.16-7.89,30.4-12.22,45.5c-1.87,6.48-3.32,19.1-12.36,17.91c-6.25-0.83-7.48-7.37-8.93-12.41
			c-2.28-7.94-4.12-15.99-6.13-24c-1.02-4.07-1.67-8.76-4.44-12c-2.77,3.24-3.41,7.93-4.44,12c-1.97,7.86-3.87,15.74-6.2,23.5
			c-1.34,4.49-2.17,11.1-7.36,12.61c-11.73,3.399-13.54-15.58-15.58-23.11c-4.01-14.81-8.12-29.61-11.86-44.5
			c-1.33-5.31-4.88-13.04-4.28-18.5c0.71-6.41,10.15-9.67,14.55-4.93c5.43,5.84,6.48,18.41,8.36,25.93
			c1.6,6.43,4.28,13.11,5.7,19.64c0.24,1.13,0.45,2.25,0.61,3.36"/>
		<path fill="none" stroke="#FFFFFF" stroke-width="5" d="M342.5,233.24c6.22-1.33,11.53,4.17,10.24,10.26
			c-1.79,8.43-5.51,16.89-8.4,25c-4.62,12.99-9,26.08-13.81,39c-2.32,6.2-4.36,18.03-12.03,19.33c-8.7,1.49-11.08-10.76-13.5-16.83
			c-7.1-17.8-13.3-36.2-18.98-54.5c-1.699-5.46-6.579-15.03-1.85-19.89c4.23-4.36,11.271-2.03,13.67,2.89
			c6.05,12.4,9.311,26.45,13.66,39.5c1.17,3.5,2.19,7.09,3.61,10.5c0.43,1.04,1.229,3.24,2.77,2.77
			c2.69-0.829,4.45-10.75,5.29-13.27c3.72-11.17,7.22-22.41,11.17-33.5C335.81,240.389,337.66,234.28,342.5,233.24z"/>
		<path fill="none" stroke="#FFFFFF" stroke-width="5" d="M247.5,233.87c9.39-3.63,12.9,6.41,15.6,13.13
			c7.53,18.77,14.98,37.58,22.11,56.5c2.38,6.31,9.48,18.55,0.29,22.5c-12.67,5.45-10.81-12.46-17.61-16.48
			c-1.91-1.14-5.25-0.52-7.39-0.52H242c-2.18,0-6.43-0.81-8.15,0.8c-3.62,3.4-3.95,10.29-7.45,14.181
			c-3.16,3.489-8.93,4.289-12.2,0.47c-4.9-5.72,0.88-15.641,3.09-21.45c6.61-17.39,13.2-34.9,20.57-52
			C239.85,246.38,242.44,235.83,247.5,233.87z"/>
		<path fill="none" stroke="#FFFFFF" stroke-width="5" d="M369,233.79c6.55-1.85,14.81,0.13,21.5,0.21c5.19,0.06,12-1.21,16.98,0.29
			c5.06,1.51,7,8.55,4.17,12.7C407.33,253.32,395.59,251,389,251c-2.37,0-6.87-0.85-8.57,1.22c-1.77,2.15-0.93,6.681-0.93,9.28
			c0,2.41-0.33,5.1,0.07,7.47c0.54,3.16,6.08,2.03,8.43,2.03c6.89,0,27.8-2.38,24.83,10c-2.37,9.91-16.021,7.5-23.83,7.5
			c-2.23,0-7.56-0.98-8.99,1.16c-1.229,1.859-0.51,5.7-0.51,7.84c0,2.54-1.12,8.64,0.51,10.7c1.271,1.6,5.67,0.8,7.49,0.8
			c6.36,0,13.9-1.43,20,0.74c7.17,2.55,7.11,12.38,0.5,15.6c-4.38,2.141-12.19,0.66-17,0.66h-16.5c-2.69,0-5.68,0.39-8-1.26
			c-5.2-3.7-4-10.17-4-15.74v-39.5c0-9.05-2.18-21.29,0.22-30C363.43,236.92,366.49,234.5,369,233.79z"/>
		<path fill="none" stroke="#FFFFFF" stroke-width="5" d="M251.03,268.67c2.05-0.6,3.12,2.97,3.62,4.33l5.19,14
			c0.6,1.66,1.82,4.22-0.42,5.2c-3.3,1.45-9.84,0.46-13.42,0.28c-1.35-0.07-3.18-0.23-3.84-1.62c-1.51-3.17,2.18-9.48,3.41-12.36
			C246.62,276.07,248.19,269.51,251.03,268.67z"/>
		<path fill="none" stroke="#FFFFFF" stroke-width="10" d="M169.5,24.36c0.68-0.86,1.43-1.67,2.22-2.45c1.55-1.56,3.23-3,4.78-4.55
			c7.23-7.23,18.81-20.42,30.5-14.28c2.88,1.51,4.49,4.36,6.5,6.78c-2.03,3.03-2.36,6.74-3.98,10c-2.08,4.16-5.05,7.83-7.12,12
			c-1.17,2.37-1.47,5.76-3.25,7.75c-1.75,1.94-5.64,5.34-8.15,6.03c-3.13,0.85-6.27-0.68-8.92,1.79
			c-5.18,4.85-8.04,13.03-15.08,15.65c-9.29,3.44-20.38,0.49-30,2.28"/>
		<path fill="none" stroke="#FFFFFF" stroke-width="10" d="M262.5,5.86c-1.97,3.22-3.66,6.62-6.15,9.49
			c-8.41,9.71-15.71,3.95-24.85-0.5c-5.37-2.62-12.01-4.98-18-4.99"/>
		<path fill="none" stroke="#FFFFFF" stroke-width="10" d="M199.5,40.36c2.85,2.9,4.49,6.28,6.88,9.5c4.3,5.78,8.74,10.04,9.96,17.5
			c1.15,7.05-0.55,14.97-1.26,22c-0.51,5.17-0.54,11.17-2.58,16"/>
		<path fill="none" stroke="#FFFFFF" stroke-width="10" d="M282,24.86c7.58-7.58,17.8-20.95,29-22.57
			c5.66-0.81,13.53,0.11,15.13,7.07c1.57,6.84-6.27,15.64-9.34,21c-1.55,2.7-2.11,7.64-4.44,9.64c-4.17,3.59-11.229,3.39-15.81,6.85
			c-5.36,4.05-7.47,11.33-13.04,15.18c-2.47,1.71-5.63,1.62-8.5,1.97c-7.91,0.97-16.03,0.86-24,0.86"/>
		<path fill="none" stroke="#FFFFFF" stroke-width="10" d="M376.5,5.36c-2.23,3.78-4.34,7.63-7.23,10.97
			c-7.67,8.86-15.8,2.8-23.77-1.25c-5.61-2.86-12.18-5.22-18.5-5.23"/>
		<path fill="none" stroke="#FFFFFF" stroke-width="10" d="M313,40.36c5.77,5.89,14.39,15.96,16.61,24
			c1.37,4.98,0.46,11.42-0.03,16.5c-0.78,8.27-1.39,16.31-3.08,24.5"/>
		<path fill="none" stroke="#FFFFFF" stroke-width="5" d="M120.5,123.22c11.48-1.79,24.08,1.65,33.5,8.3c5.37,3.8,9.11,11.6,2,15.98
			c-8.02,4.94-17.51-6.36-26-6.96c-24.32-1.7-41.83,25.1-27.74,45.96c7.59,11.24,22.18,15.32,34.74,10.83
			c5.86-2.1,12.43-9.9,19-5.48c11.08,7.46-2.5,17.77-9.5,21c-5.18,2.38-10.4,3.19-16,3.73c-5.91,0.58-11.77,0.58-17.5-1.25
			c-36.45-11.68-45.27-63.04-12.5-84.48C106.5,126.92,113.4,124.33,120.5,123.22z"/>
		<path fill="none" stroke="#FFFFFF" stroke-width="5" d="M252.5,123.3c10.6-0.48,9,11.64,9,18.7c0,18.68,1.83,38.46-0.36,57
			c-0.87,7.38,1.8,17.79-9.14,17.77c-9.31-0.02-7-13.78-7-19.77c0-18.84-0.5-37.64-0.5-56.5C244.5,133.93,243.19,123.72,252.5,123.3
			z"/>
		<path fill="none" stroke="#FFFFFF" stroke-width="5" d="M293.5,160.5c-1.14,3.86-0.5,8.49-0.5,12.5c0,6.03-0.5,11.98-0.5,18
			c0,6.66,1.28,15.92-2.07,22c-3.17,5.74-12.39,4.87-14.96-1c-2.63-6.01-0.97-15.56-0.97-22v-39c0-6.07-1.14-13.66,0.78-19.5
			c2.239-6.78,10.41-9.18,16.72-7.73c7.52,1.72,9.11,10.39,11.33,16.73c3.21,9.17,6.53,18.31,9.67,27.5c2.03,5.94,3.84,12.85,7.5,18
			c3.19-3.67,4.45-8.94,6-13.5c2.67-7.84,5.31-15.73,8.21-23.5c2.65-7.08,4.7-17.62,10.31-22.94c7.29-6.91,18.881-1.7,21.461,6.94
			c2.01,6.74,1.02,14.55,1.02,21.5v39c0,7.06,1.52,27.19-11.5,23.17c-6.8-2.1-5.5-10.18-5.5-15.67v-29c0-4.7,0.85-10.26-1.5-14.5
			c-3.67,4.09-4.9,9.9-6.67,15c-3.13,9.02-6.34,18-9.5,27c-1.58,4.52-3.18,12.11-6.88,15.31c-6.46,5.56-12.07-0.53-14.44-6.31
			c-4.81-11.69-8.34-24.01-12.34-36c-1.9-5.69-5.1-11.27-6.17-17"/>
		<path fill="none" stroke="#FFFFFF" stroke-width="5" d="M388,123.79c6.55-1.85,14.81,0.13,21.5,0.21c5.19,0.06,12-1.21,16.98,0.29
			c5.06,1.52,7,8.55,4.17,12.7C426.33,143.32,414.59,141,408,141c-2.37,0-6.87-0.85-8.57,1.22c-1.77,2.15-0.93,6.68-0.93,9.28
			c0,2.41-0.33,5.1,0.07,7.47c0.54,3.16,6.08,2.03,8.43,2.03c6.89,0,27.8-2.38,24.83,10c-2.37,9.91-16.021,7.5-23.83,7.5
			c-2.23,0-7.56-0.98-8.99,1.16c-1.229,1.86-0.51,5.7-0.51,7.84c0,2.54-1.12,8.64,0.51,10.7c1.28,1.6,5.67,0.8,7.49,0.8
			c6.36,0,13.9-1.43,20,0.74c7.17,2.55,7.11,12.38,0.5,15.6c-4.38,2.141-12.19,0.66-17,0.66h-16.5c-2.69,0-5.68,0.39-8-1.26
			c-5.2-3.7-4-10.17-4-15.74v-39.5c0-9.05-2.18-21.29,0.22-30C382.43,126.92,385.49,124.5,388,123.79z"/>
		<path fill="none" stroke="#FFFFFF" stroke-width="5" d="M220.4,186.5c-1.08-1.8-3.72-4.78-3.4-7c0.4-2.81,4.63-5.52,6.45-7.5
			c3.36-3.65,5.93-8.52,6.46-13.5c1.47-13.64-2.61-28.73-17.41-33.1c-5.95-1.77-12.86-0.9-19-0.9c-4.65,0-11.63-1.3-16,0.37
			c-7.07,2.71-5,13.26-5,19.13c0,17.36,0.5,34.66,0.5,52c0,5.21-1.92,15.42,2.61,19.18c4.75,3.94,12.22,0.42,13.65-5.18
			c1.13-4.4-0.1-9.48,0.32-14c0.26-2.69,0.42-5.29,0.42-8c0-1.92-0.6-5.17,0.51-6.84c1.66-2.48,6.02-0.96,7.44,0.9
			c6.21,8.08,10.22,18.21,15.45,26.94c2.92,4.87,6.27,9.45,12.6,7.19C238.76,211.64,224.29,192.99,220.4,186.5z"/>
		<path fill="none" stroke="#FFFFFF" stroke-width="2" d="M208.49,160.78c5.86-3.1,6.33-12.33,1.92-16.68
			c-3.16-3.12-14.72-4.58-18.84-2.73c-1.57,0.71-1.74,2.61-1.93,4.13c-0.42,3.41-1.56,12.44,0.37,15.34
			c1.02,1.53,3.41,1.16,4.99,1.16C199.22,162,204.62,162.82,208.49,160.78z"/>
		<line fill="none" stroke="#FFFFFF" stroke-width="2" x1="349.5" y1="156" x2="349.5" y2="157"/>
		<line fill="none" stroke="#FFFFFF" stroke-width="2" x1="320.5" y1="186" x2="320.5" y2="187"/>
		<line fill="none" stroke="#FFFFFF" stroke-width="5" x1="483.22" y1="369" x2="483.22" y2="372"/>
		<polyline fill="none" stroke="#FFFFFF" stroke-width="5" points="503.72,374.5 503.59,375.65 503.43,377.15 503.22,379 		"/>
		<line fill="none" stroke="#FFFFFF" stroke-width="5" x1="136.72" y1="355.5" x2="135.72" y2="356.5"/>
		<path fill="none" stroke="#FFFFFF" stroke-width="5" d="M171.72,365.5l2,1c2.87-4.13,1.21-10,7.5-11"/>
		<path fill="none" stroke="#FFFFFF" stroke-width="5" d="M320.72,355.5c-1.45,4.54-2.7,9.27-3.76,14.06
			c-1.32,5.98-2.35,12.051-3.11,17.96c-0.05,0.33-0.09,0.65-0.13,0.98"/>
		<path fill="none" stroke="#FFFFFF" stroke-width="5" d="M515.72,365.5l2,1c2.87-4.13,1.21-10,7.5-11"/>
		<path fill="none" stroke="#FFFFFF" stroke-width="5" d="M15.72,381.5c0.99,11.28,20.05,10.73,23.1,1
			c3.94-12.57-18.63-7.31-18.4-17c0.25-10.71,19.62-14.12,21.3-3"/>
		<path fill="none" stroke="#FFFFFF" stroke-width="5" d="M54.72,359c-1.37,7.36-3.16,14.56-4.6,22c-0.6,3.13-1.76,6.85,2.1,8"/>
		<path fill="none" stroke="#FFFFFF" stroke-width="5" d="M385.72,359c-1.37,7.36-3.17,14.56-4.6,22c-0.601,3.13-1.76,6.85,2.1,8"/>
		<path fill="none" stroke="#FFFFFF" stroke-width="5" d="M196.22,365.37c5.95,0.02,7.35,5.21,6.95,10.13
			c-0.55,6.85-5.41,14.46-12.95,14.46c-5.56,0-8.09-5.54-7.06-10.46C184.61,372.599,187.98,365.33,196.22,365.37z"/>
		<polyline fill="none" stroke="#FFFFFF" stroke-width="5" points="224.22,365 215.15,371.15 210.22,388 		"/>
		<path fill="none" stroke="#FFFFFF" stroke-width="5" d="M313.72,387.5c-4.51-3.31-11.29,5.53-15.359-1.52
			c-4.091-7.07,1.52-20.471,10.359-20.671c3.25-0.069,5.65,2.29,8,4.19"/>
		<line fill="none" stroke="#FFFFFF" stroke-width="5" x1="50.72" y1="365.5" x2="52.72" y2="366.5"/>
		<line fill="none" stroke="#FFFFFF" stroke-width="5" x1="54.72" y1="365.5" x2="58.22" y2="365.5"/>
		<path fill="none" stroke="#FFFFFF" stroke-width="5" d="M65.72,370c1.36-1.35,2.7-2.96,4.5-3.74c1.38-0.609,3.01-0.72,4.5-0.75
			c6.64-0.13,6.92,5.05,5.98,10.26c-0.44,2.41-1.14,4.83-1.6,6.73c-0.27,1.13-0.58,2.39-0.61,3.53c-0.04,1.68,0.53,3.1,2.73,3.47"/>
		<path fill="none" stroke="#FFFFFF" stroke-width="5" d="M110.72,365.5c-3.8,5.64-6.55,11.96-10.45,17.5
			c-1.19,1.68-3.27,2.59-4.34,4.25c-2.99,4.67-2.35,10.03-9.21,11.25"/>
		<path fill="none" stroke="#FFFFFF" stroke-width="5" d="M145.22,366.5v2.5c4.03-1.02,8.53-4.97,12.97-3.13
			c2.46,1.02,2.51,3.88,2.24,6.13c-0.65,5.35-1.06,11-3.21,16"/>
		<line fill="none" stroke="#FFFFFF" stroke-width="5" x1="175.72" y1="365.5" x2="179.22" y2="365.5"/>
		<path fill="none" stroke="#FFFFFF" stroke-width="5" d="M227.22,388c1.9-4.97,1.69-14.94,5.28-18.75
			c2.05-2.17,8.28-4.45,11.21-3.44c1.49,0.521,2.4,2.21,4.05,2.271c3.74,0.15,6.94-3.47,10.94-2.36c2.7,0.761,2.76,3.48,2.6,5.78
			c-0.38,5.43-1.48,10.68-2.58,16"/>
		<path fill="none" stroke="#FFFFFF" stroke-width="5" d="M270.22,376.5c1.09-4.18,3.169-8.56,7.5-10.22
			c5.971-2.28,12.73,1.109,11.391,8.21c-1.15,6.06-13.721,0.27-18.15,2.96c-0.31,0.189-0.58,0.43-0.81,0.71
			c-3.17,3.99,0.74,9.96,5.07,10.49c5.07,0.6,8.25-2.311,12-5.15"/>
		<path fill="none" stroke="#FFFFFF" stroke-width="5" d="M352.72,386c3.45,6.32,16.721,3.9,16.34-3.99
			c-0.26-5.37-10.479-4.47-12.819-8.6c-1.78-3.13,1.21-6.25,3.979-7.18c4.391-1.461,7.73-0.32,11,2.77"/>
		<line fill="none" stroke="#FFFFFF" stroke-width="5" x1="381.72" y1="365.5" x2="383.72" y2="366.5"/>
		<line fill="none" stroke="#FFFFFF" stroke-width="5" x1="385.72" y1="365.5" x2="389.22" y2="365.5"/>
		<path fill="none" stroke="#FFFFFF" stroke-width="5" d="M396.72,370c1.36-1.35,2.7-2.96,4.5-3.74c1.38-0.609,3.011-0.72,4.5-0.75
			c6.641-0.13,6.92,5.05,5.98,10.26c-0.44,2.41-1.141,4.83-1.601,6.73c-0.27,1.13-0.58,2.38-0.609,3.53
			c-0.04,1.68,0.529,3.1,2.729,3.47"/>
		<path fill="none" stroke="#FFFFFF" stroke-width="5" d="M441.72,365.5c-3.8,5.64-6.55,11.96-10.45,17.5
			c-1.189,1.68-3.27,2.59-4.34,4.25c-2.989,4.67-2.35,10.03-9.21,11.25"/>
		<path fill="none" stroke="#FFFFFF" stroke-width="5" d="M459.72,386c3.45,6.32,16.721,3.9,16.34-3.99
			c-0.26-5.37-10.479-4.47-12.819-8.6c-1.78-3.13,1.21-6.25,3.979-7.18c4.391-1.461,7.73-0.32,11,2.77"/>
		<path fill="none" stroke="#FFFFFF" stroke-width="5" d="M488.72,370c1.36-1.35,2.7-2.96,4.5-3.74c1.38-0.609,3.011-0.72,4.5-0.75
			c7.23-0.14,6.931,6.01,5.71,11.641c-0.43,1.939-0.96,3.81-1.33,5.35c-0.27,1.13-0.59,2.41-0.609,3.56
			c-0.04,1.66,0.54,3.07,2.729,3.44"/>
		<line fill="none" stroke="#FFFFFF" stroke-width="5" x1="519.72" y1="365.5" x2="523.22" y2="365.5"/>
		<path fill="none" stroke="#FFFFFF" stroke-width="5" d="M528.22,376.5c1.09-4.18,3.17-8.56,7.5-10.22
			c5.971-2.28,12.73,1.109,11.38,8.21c-1.14,6.06-13.71,0.27-18.14,2.96c-0.31,0.189-0.58,0.43-0.81,0.71
			c-3.17,3.99,0.739,9.96,5.069,10.49c5.061,0.6,8.25-2.311,12-5.15"/>
		<line fill="none" stroke="#FFFFFF" stroke-width="5" x1="92.72" y1="366" x2="95.22" y2="386"/>
		<line fill="none" stroke="#FFFFFF" stroke-width="5" x1="134.22" y1="366" x2="129.22" y2="388"/>
		<line fill="none" stroke="#FFFFFF" stroke-width="5" x1="215.72" y1="366" x2="215.22" y2="369.5"/>
		<line fill="none" stroke="#FFFFFF" stroke-width="5" x1="232.22" y1="366" x2="232.22" y2="368"/>
		<line fill="none" stroke="#FFFFFF" stroke-width="5" x1="423.72" y1="366" x2="426.22" y2="386"/>
		<path fill="none" stroke="#FFFFFF" stroke-width="5" d="M173.72,366.5c-0.89,7.04-1.6,14.95-4.5,21.5"/>
		<path fill="none" stroke="#FFFFFF" stroke-width="5" d="M517.72,366.5c-0.89,7.04-1.6,14.95-4.5,21.5"/>
		<line fill="none" stroke="#FFFFFF" stroke-width="5" x1="246.72" y1="368.5" x2="242.72" y2="388.5"/>
		<line fill="none" stroke="#FFFFFF" stroke-width="5" x1="144.72" y1="369.5" x2="140.22" y2="388"/>
		<path fill="none" stroke="#FFFFFF" stroke-width="5" d="M77.22,386c-3.43,1.63-7.52,4.16-11.5,3.5c-4.57-0.77-4.21-7.29-1.43-9.8
			c3.81-3.45,10.22-3.07,14.93-4.2"/>
		<path fill="none" stroke="#FFFFFF" stroke-width="5" d="M408.22,386c-3.43,1.63-7.52,4.16-11.5,3.5
			c-4.569-0.77-4.21-7.29-1.43-9.8c3.81-3.45,10.22-3.07,14.93-4.2"/>
		<path fill="none" stroke="#FFFFFF" stroke-width="5" d="M500.22,386c-3.43,1.63-7.52,4.16-11.5,3.5
			c-4.569-0.77-4.21-7.29-1.43-9.8c3.81-3.45,10.22-3.07,14.93-4.2"/>
		<line fill="none" stroke="#FFFFFF" stroke-width="5" x1="311.72" y1="385" x2="313.72" y2="384"/>
		<path fill="none" stroke="#FFFFFF" stroke-width="5" d="M326.72,387.5c-0.92,3.7-0.72,5.94-4,8.5"/>
	</g>
</g>
</svg>
